<?xml version="1.0" standalone="no"?>
<!DOCTYPE svg PUBLIC "-//W3C//DTD SVG 20010904//EN"
 "http://www.w3.org/TR/2001/REC-SVG-20010904/DTD/svg10.dtd">
<svg version="1.0" xmlns="http://www.w3.org/2000/svg"
 width="300.000000pt" height="300.000000pt" viewBox="0 0 300.000000 300.000000"
 preserveAspectRatio="xMidYMid meet">
<metadata>
Created by potrace 1.10, written by Peter Selinger 2001-2011
</metadata>
<g transform="translate(0.000000,300.000000) scale(0.100000,-0.100000)"
fill="#000000" stroke="none">
<path d="M610 2362 c0 -15 -13 -48 -29 -73 -31 -49 -80 -79 -130 -79 l-30 0
15 -42 c20 -58 10 -108 -33 -164 -19 -25 -32 -48 -29 -51 13 -14 60 34 83 84
25 53 27 88 8 136 -6 14 -1 17 29 17 47 0 111 56 127 111 l12 39 22 -25 c33
-35 95 -49 139 -31 33 14 64 51 52 63 -3 4 -14 -1 -23 -10 -52 -47 -125 -39
-169 18 -32 42 -44 44 -44 7z"/>
<path d="M1263 2098 c-32 -40 -65 -78 -73 -85 -27 -22 9 -15 41 8 39 27 121
128 113 140 -11 18 -24 8 -81 -63z"/>
<path d="M1389 2075 c-62 -20 -146 -96 -175 -160 -19 -41 -24 -67 -24 -141 0
-77 4 -98 26 -142 26 -52 105 -132 130 -132 54 0 -58 -98 -231 -201 -33 -19
-162 -101 -287 -182 -126 -80 -228 -143 -228 -140 0 2 38 66 84 141 45 76 107
181 137 234 50 90 57 98 89 103 104 18 190 79 234 167 22 44 26 65 26 142 0
113 -24 171 -98 237 -153 138 -389 83 -475 -110 -29 -66 -29 -179 1 -245 44
-98 110 -158 196 -180 l44 -11 -116 -190 c-138 -227 -182 -309 -182 -342 l0
-25 67 37 c155 85 558 350 682 447 40 32 78 58 83 58 5 0 8 -14 6 -32 -2 -27
-12 -37 -58 -65 -32 -19 -60 -44 -67 -60 -13 -31 -15 -104 -4 -143 8 -24 15
-1 36 115 5 23 91 89 106 80 10 -7 13 -233 3 -259 -4 -12 -16 -14 -47 -10 -68
8 -99 -6 -124 -56 -23 -45 -31 -106 -13 -95 5 3 20 28 31 56 14 33 29 51 43
54 42 8 96 11 96 4 0 -4 -18 -33 -40 -66 -21 -32 -45 -81 -52 -109 -15 -62
-14 -60 -36 -41 -27 25 -91 49 -113 42 -18 -6 -69 -91 -69 -115 0 -21 41 11
57 46 10 19 24 34 34 34 31 0 112 -63 120 -94 9 -33 52 -81 91 -102 15 -8 66
-23 113 -35 73 -17 94 -18 147 -9 207 38 341 220 342 465 0 141 -56 289 -146
382 -29 30 -31 35 -18 58 23 43 114 148 161 186 105 85 223 129 349 129 131 0
211 -44 246 -137 34 -88 0 -184 -104 -295 -110 -116 -260 -176 -419 -166 -94
6 -85 -7 14 -21 63 -9 91 -8 146 4 209 44 410 247 410 414 0 106 -68 193 -179
227 -59 18 -154 18 -221 1 l-52 -14 -6 28 c-8 35 -63 82 -114 98 -82 24 -188
9 -240 -34 l-29 -25 -13 33 c-20 48 -87 116 -144 144 -62 32 -159 40 -226 18z
m212 -72 c123 -63 174 -212 115 -338 -71 -154 -250 -201 -382 -100 -88 67
-120 211 -72 317 61 132 210 186 339 121z m-640 3 c56 -20 103 -61 135 -118
24 -45 28 -64 28 -128 0 -107 -46 -183 -139 -233 -56 -30 -164 -30 -221 0
-110 58 -164 188 -129 309 20 69 89 147 150 169 50 18 129 18 176 1z m1072
-97 c38 -10 121 -84 112 -99 -2 -4 -17 -10 -32 -13 -76 -15 -231 -146 -301
-255 l-38 -59 -37 32 -37 32 34 58 c41 67 60 148 51 213 -6 45 -5 48 26 66 59
35 150 45 222 25z m-322 -414 l39 -35 -38 -19 c-53 -27 -168 -61 -207 -61 -59
0 -91 18 -103 57 -6 21 -10 38 -9 39 1 1 22 -2 47 -8 58 -13 145 4 192 37 18
13 35 24 37 24 2 1 21 -15 42 -34z m127 -144 c39 -54 92 -171 92 -202 0 -6
-26 -22 -57 -37 -55 -26 -66 -27 -203 -26 -125 1 -151 4 -192 22 l-48 21 0 52
c0 45 2 50 18 44 9 -4 42 -10 73 -12 l56 -5 16 -47 15 -46 1 46 1 46 55 7 c59
7 148 37 179 61 33 25 10 28 -40 5 -26 -12 -81 -29 -122 -37 -63 -13 -76 -13
-83 -2 -13 20 -12 22 26 66 34 40 44 63 27 63 -13 0 -37 -22 -66 -62 -20 -27
-26 -43 -21 -59 7 -21 6 -22 -46 -15 -77 10 -85 18 -92 77 -4 29 -5 54 -4 55
1 1 24 -2 51 -7 37 -7 65 -5 110 6 72 18 166 62 166 77 0 18 39 -23 88 -91z
m98 -335 c-10 -115 -6 -111 -99 -127 -85 -14 -255 -16 -267 -2 -4 4 -11 36
-14 70 -6 58 -5 63 16 75 13 7 68 15 124 18 83 5 111 12 165 37 78 37 84 31
75 -71z m-402 50 l29 -7 -23 -16 c-20 -14 -22 -20 -15 -81 8 -74 13 -72 -85
-31 -30 13 -56 24 -57 24 -2 1 6 18 16 39 11 20 22 55 26 76 l7 40 36 -19 c21
-10 50 -21 66 -25z m-138 -134 c5 -5 43 -23 84 -41 65 -29 89 -34 180 -38 82
-4 121 0 178 15 l73 19 -6 -26 c-4 -14 -11 -31 -16 -37 -18 -22 -162 -49 -266
-49 -97 0 -102 1 -122 26 -27 35 -76 55 -95 40 -11 -9 -21 -6 -45 14 -30 26
-30 27 -16 56 16 29 33 36 51 21z m-40 -93 c15 -17 16 -23 6 -40 -18 -28 -33
-69 -26 -69 4 0 21 16 39 36 32 34 34 35 61 21 89 -44 266 -49 377 -10 31 11
57 17 57 13 0 -20 -64 -90 -107 -118 -62 -40 -162 -66 -222 -58 -125 17 -222
72 -234 133 -6 30 11 113 23 113 4 0 15 -9 26 -21z"/>
<path d="M1416 1764 c-20 -19 -20 -29 0 -48 12 -12 20 -13 35 -6 21 12 25 40
7 58 -16 16 -23 15 -42 -4z"/>
<path d="M890 1755 c-18 -21 -8 -50 19 -53 37 -6 52 26 25 52 -19 20 -28 20
-44 1z"/>
</g>
</svg>
